<svg width="1920" height="1920" viewBox="0 0 1920 1920" fill="none" xmlns="http://www.w3.org/2000/svg">
<path d="M814.084 160C630.179 160 481.16 325.771 481.16 530.218C481.16 676.215 557.283 802.182 667.729 862.425V626.217C667.729 543.537 734.734 476.583 817.363 476.583C899.992 476.583 966.997 543.588 966.997 626.217V858.942C1073.86 797.315 1147.01 673.346 1147.01 530.218C1146.96 325.771 997.938 160 814.084 160Z" fill="#003E70"/>
<path d="M1428.4 1437.19V1116.3C1428.4 1068.25 1389.57 1029.47 1341.67 1029.47C1293.67 1029.47 1254.84 1068.41 1254.84 1116.3V1069.17C1254.84 1021.12 1215.91 982.447 1168.01 982.447C1120.11 982.447 1081.28 1021.28 1081.28 1069.17L1078.21 994.127C1078.21 946.076 1039.33 907.297 991.429 907.297C943.531 907.297 904.701 946.127 904.701 994.127V634.821C904.701 586.872 865.769 548.042 817.872 548.042C769.821 548.042 731.093 586.975 731.093 634.821V1270.45L659.682 1157.69C634.069 1117.17 580.434 1105.08 539.914 1130.6C499.393 1156.31 487.252 1209.95 512.917 1250.36L642.726 1490.11C642.726 1490.11 763.315 1760.64 1034.2 1760.64C1304.78 1760.69 1428.4 1596.1 1428.4 1437.19Z" fill="#F26E25"/>
</svg>
