<svg width="2480" height="1060" viewBox="0 0 2480 1060" fill="none" xmlns="http://www.w3.org/2000/svg">
<path d="M1712.45 297.271C1638.62 297.271 1578.8 363.911 1578.8 446.1C1578.8 504.791 1609.36 555.43 1653.7 579.648V484.692C1653.7 451.454 1680.6 424.539 1713.77 424.539C1746.94 424.539 1773.84 451.475 1773.84 484.692V578.248C1816.73 553.474 1846.1 503.638 1846.1 446.1C1846.08 363.911 1786.26 297.271 1712.45 297.271Z" fill="#003E70"/>
<path d="M302.583 590.954C248.394 590.954 223.305 552.074 223.305 510.392V350.979H190.195V306.414H223.284V218.46H281.462V306.414H337.378V350.979H281.462V507.53C281.462 528.659 291.745 541.283 313.42 541.283H337.378V590.954H302.583Z" fill="#003E70"/>
<path d="M596.332 560.105C577.494 579.525 548.991 594.372 509.63 594.372C470.269 594.372 442.321 579.525 423.484 560.105C396.091 531.521 389.243 494.968 389.243 445.853C389.243 397.293 396.091 360.719 423.484 332.156C442.321 312.737 470.269 297.868 509.63 297.868C548.991 297.868 577.515 312.716 596.332 332.156C623.724 360.719 630.572 397.293 630.572 445.853C630.572 494.947 623.704 531.521 596.332 560.105ZM552.405 366.403C541.567 355.55 526.72 349.825 509.61 349.825C492.479 349.825 478.228 355.509 467.39 366.403C449.704 384.113 447.421 414.386 447.421 445.811C447.421 477.216 449.704 507.509 467.39 525.22C478.228 536.072 492.479 542.353 509.61 542.353C526.72 542.353 541.547 536.072 552.405 525.22C570.091 507.509 572.374 477.216 572.374 445.811C572.374 414.386 570.091 384.134 552.405 366.403Z" fill="#003E70"/>
<path d="M789.765 590.954C735.556 590.954 710.467 552.074 710.467 510.392V350.979H677.378V306.414H710.467V218.46H768.645V306.414H824.561V350.979H768.645V507.53C768.645 528.659 778.927 541.283 800.603 541.283H824.561V590.954H789.765Z" fill="#003E70"/>
<path d="M1045.86 590.954V564.697C1024.76 585.806 1004.77 594.372 968.845 594.372C932.918 594.372 908.939 585.806 891.253 568.116C876.426 552.712 868.447 530.43 868.447 505.862C868.447 457.323 902.112 422.438 968.269 422.438H1044.71V401.844C1044.71 365.312 1026.45 347.581 981.389 347.581C949.431 347.581 934.028 354.994 918.07 375.567L879.84 339.57C907.232 307.568 935.756 297.868 983.672 297.868C1062.97 297.868 1102.91 331.579 1102.91 397.273V590.954H1045.86ZM1044.73 462.986H976.844C942.624 462.986 924.939 478.39 924.939 504.647C924.939 530.945 941.493 545.792 977.996 545.792C1000.25 545.792 1016.78 544.104 1032.18 529.215C1040.74 520.648 1044.73 506.933 1044.73 486.36V462.986Z" fill="#003E70"/>
<path d="M1264.4 590.954C1209.06 590.954 1185.11 553.824 1185.11 510.969V184.192H1243.3V507.53C1243.3 529.853 1251.28 541.282 1274.67 541.282H1300.33V590.954H1264.4Z" fill="#003E70"/>
<path d="M1458.29 594.372C1393.26 594.372 1329.35 554.401 1329.35 445.853C1329.35 337.305 1393.24 297.868 1458.29 297.868C1498.23 297.868 1526.17 309.318 1553.57 338.437L1513.67 377.297C1495.41 357.28 1481.14 349.866 1458.35 349.866C1436.1 349.866 1417.26 358.989 1404.74 375.588C1392.21 391.548 1387.63 412.12 1387.63 445.853C1387.63 479.564 1392.21 500.693 1404.74 516.694C1417.26 533.292 1436.1 542.395 1458.35 542.395C1481.14 542.395 1495.45 534.96 1513.67 514.964L1553.57 553.247C1526.15 582.387 1498.23 594.372 1458.29 594.372Z" fill="#003E70"/>
<path d="M1904.43 244.181V182.483H1966.04V244.181H1904.43ZM1906.13 590.954V301.286H1964.31V590.933H1906.13V590.954Z" fill="#003E70"/>
<path d="M2227.34 590.954V414.406C2227.34 369.286 2201.67 349.846 2169.16 349.846C2136.64 349.846 2109.25 369.842 2109.25 414.406V590.933H2051.09V301.286H2108.12V330.426C2128.09 308.721 2156.04 297.847 2185.12 297.847C2214.75 297.847 2239.32 307.567 2256.43 324.125C2278.69 345.83 2285.53 373.24 2285.53 405.819V590.933H2227.34V590.954Z" fill="#003E70"/>
<path d="M1959.06 810.706V681.709C1959.06 662.392 1943.48 646.803 1924.25 646.803C1904.98 646.803 1889.39 662.454 1889.39 681.709V662.763C1889.39 643.446 1873.76 627.898 1854.53 627.898C1835.3 627.898 1819.72 643.508 1819.72 662.763L1818.48 632.594C1818.48 613.277 1802.87 597.688 1783.65 597.688C1764.42 597.688 1748.83 613.298 1748.83 632.594V488.151C1748.83 468.876 1733.2 453.266 1713.97 453.266C1694.68 453.266 1679.14 468.917 1679.14 488.151V743.675L1650.47 698.349C1640.18 682.059 1618.65 677.199 1602.39 687.455C1586.12 697.793 1581.25 719.354 1591.55 735.602L1643.66 831.979C1643.66 831.979 1692.07 940.733 1800.82 940.733C1909.44 940.754 1959.06 874.587 1959.06 810.706Z" fill="#F37D3D"/>
<path d="M218.474 753.644C216.941 753.644 215.745 753.215 214.886 752.356C214.089 751.497 213.69 750.301 213.69 748.768V696.144H194.186C192.898 696.144 191.886 695.807 191.15 695.132C190.414 694.396 190.046 693.384 190.046 692.096C190.046 690.808 190.414 689.827 191.15 689.152C191.886 688.477 192.898 688.14 194.186 688.14H242.67C244.02 688.14 245.062 688.477 245.798 689.152C246.534 689.827 246.902 690.808 246.902 692.096C246.902 693.384 246.534 694.396 245.798 695.132C245.062 695.807 244.02 696.144 242.67 696.144H223.166V748.768C223.166 750.301 222.768 751.497 221.97 752.356C221.234 753.215 220.069 753.644 218.474 753.644Z" fill="#003E70"/>
<path d="M250.691 753.644C249.158 753.644 247.992 753.245 247.195 752.448C246.398 751.589 245.999 750.424 245.999 748.952V712.152C245.999 710.619 246.398 709.453 247.195 708.656C247.992 707.859 249.096 707.46 250.507 707.46C251.979 707.46 253.083 707.859 253.819 708.656C254.616 709.453 255.015 710.619 255.015 712.152V718.868H254.095C255.076 715.188 256.886 712.397 259.523 710.496C262.16 708.595 265.534 707.491 269.643 707.184C270.747 707.123 271.606 707.399 272.219 708.012C272.894 708.625 273.262 709.576 273.323 710.864C273.446 712.152 273.17 713.195 272.495 713.992C271.82 714.728 270.778 715.157 269.367 715.28L267.619 715.464C263.632 715.832 260.596 717.089 258.511 719.236C256.426 721.383 255.383 724.327 255.383 728.068V748.952C255.383 750.424 254.984 751.589 254.187 752.448C253.451 753.245 252.286 753.644 250.691 753.644Z" fill="#003E70"/>
<path d="M294.222 753.828C291.094 753.828 288.273 753.215 285.758 751.988C283.305 750.761 281.373 749.105 279.962 747.02C278.551 744.935 277.846 742.573 277.846 739.936C277.846 736.624 278.674 734.017 280.33 732.116C282.047 730.153 284.838 728.773 288.702 727.976C292.627 727.117 297.902 726.688 304.526 726.688H308.85V732.392H304.618C300.202 732.392 296.706 732.607 294.13 733.036C291.554 733.465 289.714 734.201 288.61 735.244C287.567 736.225 287.046 737.605 287.046 739.384C287.046 741.715 287.843 743.616 289.438 745.088C291.033 746.499 293.241 747.204 296.062 747.204C298.331 747.204 300.325 746.683 302.042 745.64C303.759 744.536 305.109 743.064 306.09 741.224C307.133 739.384 307.654 737.268 307.654 734.876V724.296C307.654 720.8 306.918 718.285 305.446 716.752C303.974 715.219 301.551 714.452 298.178 714.452C296.215 714.452 294.161 714.697 292.014 715.188C289.929 715.679 287.751 716.507 285.482 717.672C284.439 718.163 283.55 718.316 282.814 718.132C282.078 717.948 281.495 717.549 281.066 716.936C280.637 716.261 280.391 715.556 280.33 714.82C280.33 714.023 280.514 713.256 280.882 712.52C281.311 711.784 282.017 711.232 282.998 710.864C285.697 709.576 288.365 708.656 291.002 708.104C293.639 707.552 296.123 707.276 298.454 707.276C302.563 707.276 305.937 707.92 308.574 709.208C311.273 710.496 313.266 712.459 314.554 715.096C315.842 717.733 316.486 721.137 316.486 725.308V748.952C316.486 750.424 316.118 751.589 315.382 752.448C314.646 753.245 313.573 753.644 312.162 753.644C310.813 753.644 309.739 753.245 308.942 752.448C308.145 751.589 307.746 750.424 307.746 748.952V742.972H308.574C308.083 745.241 307.163 747.204 305.814 748.86C304.526 750.455 302.901 751.681 300.938 752.54C298.975 753.399 296.737 753.828 294.222 753.828Z" fill="#003E70"/>
<path d="M333.884 753.644C332.412 753.644 331.277 753.245 330.48 752.448C329.683 751.589 329.284 750.424 329.284 748.952V712.152C329.284 710.619 329.683 709.453 330.48 708.656C331.277 707.859 332.381 707.46 333.792 707.46C335.264 707.46 336.368 707.859 337.104 708.656C337.901 709.453 338.3 710.619 338.3 712.152V719.328L337.288 717.672C338.637 714.237 340.753 711.661 343.636 709.944C346.519 708.165 349.831 707.276 353.572 707.276C357.129 707.276 360.073 707.951 362.404 709.3C364.796 710.588 366.575 712.581 367.74 715.28C368.905 717.917 369.488 721.26 369.488 725.308V748.952C369.488 750.424 369.089 751.589 368.292 752.448C367.495 753.245 366.36 753.644 364.888 753.644C363.355 753.644 362.189 753.245 361.392 752.448C360.595 751.589 360.196 750.424 360.196 748.952V725.86C360.196 721.996 359.429 719.175 357.896 717.396C356.424 715.617 354.093 714.728 350.904 714.728C347.163 714.728 344.157 715.893 341.888 718.224C339.68 720.555 338.576 723.683 338.576 727.608V748.952C338.576 752.08 337.012 753.644 333.884 753.644Z" fill="#003E70"/>
<path d="M398.024 753.828C395.325 753.828 392.535 753.521 389.652 752.908C386.831 752.295 384.224 751.252 381.832 749.78C381.035 749.228 380.483 748.615 380.176 747.94C379.869 747.265 379.747 746.591 379.808 745.916C379.931 745.18 380.207 744.567 380.636 744.076C381.127 743.524 381.709 743.187 382.384 743.064C383.12 742.941 383.887 743.095 384.684 743.524C387.076 744.873 389.376 745.824 391.584 746.376C393.792 746.867 395.969 747.112 398.116 747.112C401.367 747.112 403.82 746.529 405.476 745.364C407.132 744.199 407.96 742.635 407.96 740.672C407.96 739.077 407.408 737.851 406.304 736.992C405.2 736.072 403.544 735.367 401.336 734.876L392.596 733.128C388.793 732.331 385.911 730.92 383.948 728.896C381.985 726.872 381.004 724.296 381.004 721.168C381.004 718.347 381.771 715.893 383.304 713.808C384.837 711.723 386.984 710.128 389.744 709.024C392.504 707.859 395.693 707.276 399.312 707.276C402.011 707.276 404.556 707.613 406.948 708.288C409.34 708.963 411.548 709.975 413.572 711.324C414.369 711.753 414.891 712.336 415.136 713.072C415.381 713.747 415.412 714.421 415.228 715.096C415.105 715.771 414.799 716.384 414.308 716.936C413.817 717.427 413.204 717.733 412.468 717.856C411.793 717.917 411.027 717.733 410.168 717.304C408.328 716.139 406.488 715.311 404.648 714.82C402.869 714.329 401.091 714.084 399.312 714.084C396.061 714.084 393.608 714.697 391.952 715.924C390.357 717.089 389.56 718.684 389.56 720.708C389.56 722.241 390.051 723.499 391.032 724.48C392.013 725.461 393.547 726.167 395.632 726.596L404.372 728.344C408.359 729.141 411.364 730.491 413.388 732.392C415.473 734.293 416.516 736.869 416.516 740.12C416.516 744.352 414.829 747.695 411.456 750.148C408.083 752.601 403.605 753.828 398.024 753.828Z" fill="#003E70"/>
<path d="M441.206 753.828C438.078 753.828 435.257 753.215 432.742 751.988C430.289 750.761 428.357 749.105 426.946 747.02C425.536 744.935 424.83 742.573 424.83 739.936C424.83 736.624 425.658 734.017 427.314 732.116C429.032 730.153 431.822 728.773 435.686 727.976C439.612 727.117 444.886 726.688 451.51 726.688H455.834V732.392H451.602C447.186 732.392 443.69 732.607 441.114 733.036C438.538 733.465 436.698 734.201 435.594 735.244C434.552 736.225 434.03 737.605 434.03 739.384C434.03 741.715 434.828 743.616 436.422 745.088C438.017 746.499 440.225 747.204 443.046 747.204C445.316 747.204 447.309 746.683 449.026 745.64C450.744 744.536 452.093 743.064 453.074 741.224C454.117 739.384 454.638 737.268 454.638 734.876V724.296C454.638 720.8 453.902 718.285 452.43 716.752C450.958 715.219 448.536 714.452 445.162 714.452C443.2 714.452 441.145 714.697 438.998 715.188C436.913 715.679 434.736 716.507 432.466 717.672C431.424 718.163 430.534 718.316 429.798 718.132C429.062 717.948 428.48 717.549 428.05 716.936C427.621 716.261 427.376 715.556 427.314 714.82C427.314 714.023 427.498 713.256 427.866 712.52C428.296 711.784 429.001 711.232 429.982 710.864C432.681 709.576 435.349 708.656 437.986 708.104C440.624 707.552 443.108 707.276 445.438 707.276C449.548 707.276 452.921 707.92 455.558 709.208C458.257 710.496 460.25 712.459 461.538 715.096C462.826 717.733 463.47 721.137 463.47 725.308V748.952C463.47 750.424 463.102 751.589 462.366 752.448C461.63 753.245 460.557 753.644 459.146 753.644C457.797 753.644 456.724 753.245 455.926 752.448C455.129 751.589 454.73 750.424 454.73 748.952V742.972H455.558C455.068 745.241 454.148 747.204 452.798 748.86C451.51 750.455 449.885 751.681 447.922 752.54C445.96 753.399 443.721 753.828 441.206 753.828Z" fill="#003E70"/>
<path d="M496.048 753.828C491.448 753.828 487.462 752.877 484.088 750.976C480.776 749.013 478.2 746.284 476.36 742.788C474.52 739.231 473.6 735.06 473.6 730.276C473.6 726.719 474.122 723.529 475.164 720.708C476.207 717.825 477.679 715.403 479.58 713.44C481.543 711.477 483.904 709.975 486.664 708.932C489.486 707.828 492.614 707.276 496.048 707.276C498.195 707.276 500.434 707.613 502.764 708.288C505.156 708.901 507.364 709.944 509.388 711.416C510.186 711.907 510.676 712.52 510.86 713.256C511.106 713.931 511.136 714.636 510.952 715.372C510.83 716.108 510.492 716.752 509.94 717.304C509.45 717.795 508.836 718.101 508.1 718.224C507.364 718.285 506.567 718.071 505.708 717.58C504.236 716.537 502.734 715.801 501.2 715.372C499.667 714.881 498.195 714.636 496.784 714.636C494.576 714.636 492.614 715.004 490.896 715.74C489.24 716.415 487.83 717.427 486.664 718.776C485.499 720.064 484.61 721.689 483.996 723.652C483.444 725.615 483.168 727.853 483.168 730.368C483.168 735.397 484.334 739.353 486.664 742.236C489.056 745.057 492.43 746.468 496.784 746.468C498.195 746.468 499.667 746.253 501.2 745.824C502.734 745.395 504.236 744.659 505.708 743.616C506.567 743.125 507.364 742.941 508.1 743.064C508.836 743.187 509.419 743.524 509.848 744.076C510.339 744.567 510.646 745.18 510.768 745.916C510.952 746.591 510.922 747.296 510.676 748.032C510.431 748.768 509.91 749.381 509.112 749.872C507.15 751.283 505.003 752.295 502.672 752.908C500.403 753.521 498.195 753.828 496.048 753.828Z" fill="#003E70"/>
<path d="M538.095 753.828C533.495 753.828 529.509 752.877 526.135 750.976C522.823 749.013 520.247 746.284 518.407 742.788C516.567 739.231 515.647 735.06 515.647 730.276C515.647 726.719 516.169 723.529 517.211 720.708C518.254 717.825 519.726 715.403 521.627 713.44C523.59 711.477 525.951 709.975 528.711 708.932C531.533 707.828 534.661 707.276 538.095 707.276C540.242 707.276 542.481 707.613 544.811 708.288C547.203 708.901 549.411 709.944 551.435 711.416C552.233 711.907 552.723 712.52 552.907 713.256C553.153 713.931 553.183 714.636 552.999 715.372C552.877 716.108 552.539 716.752 551.987 717.304C551.497 717.795 550.883 718.101 550.147 718.224C549.411 718.285 548.614 718.071 547.755 717.58C546.283 716.537 544.781 715.801 543.247 715.372C541.714 714.881 540.242 714.636 538.831 714.636C536.623 714.636 534.661 715.004 532.943 715.74C531.287 716.415 529.877 717.427 528.711 718.776C527.546 720.064 526.657 721.689 526.043 723.652C525.491 725.615 525.215 727.853 525.215 730.368C525.215 735.397 526.381 739.353 528.711 742.236C531.103 745.057 534.477 746.468 538.831 746.468C540.242 746.468 541.714 746.253 543.247 745.824C544.781 745.395 546.283 744.659 547.755 743.616C548.614 743.125 549.411 742.941 550.147 743.064C550.883 743.187 551.466 743.524 551.895 744.076C552.386 744.567 552.693 745.18 552.815 745.916C552.999 746.591 552.969 747.296 552.723 748.032C552.478 748.768 551.957 749.381 551.159 749.872C549.197 751.283 547.05 752.295 544.719 752.908C542.45 753.521 540.242 753.828 538.095 753.828Z" fill="#003E70"/>
<path d="M565.861 753.552C564.389 753.552 563.254 753.123 562.457 752.264C561.659 751.344 561.261 750.087 561.261 748.492V712.612C561.261 711.017 561.659 709.791 562.457 708.932C563.254 708.073 564.389 707.644 565.861 707.644C567.333 707.644 568.467 708.073 569.265 708.932C570.123 709.791 570.553 711.017 570.553 712.612V748.492C570.553 750.087 570.154 751.344 569.357 752.264C568.559 753.123 567.394 753.552 565.861 753.552ZM565.861 698.076C564.021 698.076 562.579 697.616 561.537 696.696C560.555 695.776 560.065 694.488 560.065 692.832C560.065 691.115 560.555 689.827 561.537 688.968C562.579 688.048 564.021 687.588 565.861 687.588C567.701 687.588 569.111 688.048 570.093 688.968C571.135 689.827 571.657 691.115 571.657 692.832C571.657 694.488 571.135 695.776 570.093 696.696C569.111 697.616 567.701 698.076 565.861 698.076Z" fill="#003E70"/>
<path d="M603.136 753.828C598.597 753.828 594.672 752.877 591.36 750.976C588.109 749.075 585.564 746.376 583.724 742.88C581.884 739.384 580.964 735.275 580.964 730.552C580.964 726.933 581.485 723.713 582.528 720.892C583.57 718.071 585.042 715.648 586.944 713.624C588.906 711.539 591.237 709.975 593.936 708.932C596.696 707.828 599.762 707.276 603.136 707.276C607.613 707.276 611.477 708.227 614.728 710.128C618.04 712.029 620.616 714.728 622.456 718.224C624.296 721.659 625.216 725.768 625.216 730.552C625.216 734.109 624.694 737.329 623.652 740.212C622.609 743.095 621.106 745.548 619.144 747.572C617.242 749.596 614.912 751.16 612.152 752.264C609.453 753.307 606.448 753.828 603.136 753.828ZM603.136 746.652C605.65 746.652 607.858 746.039 609.76 744.812C611.661 743.585 613.133 741.776 614.176 739.384C615.28 736.992 615.832 734.048 615.832 730.552C615.832 725.277 614.666 721.291 612.336 718.592C610.005 715.893 606.938 714.544 603.136 714.544C600.56 714.544 598.321 715.157 596.42 716.384C594.518 717.549 593.016 719.328 591.912 721.72C590.869 724.112 590.348 727.056 590.348 730.552C590.348 735.765 591.513 739.752 593.844 742.512C596.174 745.272 599.272 746.652 603.136 746.652Z" fill="#003E70"/>
<path d="M640.251 753.644C638.779 753.644 637.645 753.245 636.847 752.448C636.05 751.589 635.651 750.424 635.651 748.952V712.152C635.651 710.619 636.05 709.453 636.847 708.656C637.645 707.859 638.749 707.46 640.159 707.46C641.631 707.46 642.735 707.859 643.471 708.656C644.269 709.453 644.667 710.619 644.667 712.152V719.328L643.655 717.672C645.005 714.237 647.121 711.661 650.003 709.944C652.886 708.165 656.198 707.276 659.939 707.276C663.497 707.276 666.441 707.951 668.771 709.3C671.163 710.588 672.942 712.581 674.107 715.28C675.273 717.917 675.855 721.26 675.855 725.308V748.952C675.855 750.424 675.457 751.589 674.659 752.448C673.862 753.245 672.727 753.644 671.255 753.644C669.722 753.644 668.557 753.245 667.759 752.448C666.962 751.589 666.563 750.424 666.563 748.952V725.86C666.563 721.996 665.797 719.175 664.263 717.396C662.791 715.617 660.461 714.728 657.271 714.728C653.53 714.728 650.525 715.893 648.255 718.224C646.047 720.555 644.943 723.683 644.943 727.608V748.952C644.943 752.08 643.379 753.644 640.251 753.644Z" fill="#003E70"/>
<path d="M709.727 753.828C704.82 753.828 700.588 752.908 697.031 751.068C693.535 749.167 690.806 746.499 688.843 743.064C686.942 739.568 685.991 735.428 685.991 730.644C685.991 725.983 686.942 721.904 688.843 718.408C690.744 714.912 693.351 712.183 696.663 710.22C699.975 708.257 703.747 707.276 707.979 707.276C711.107 707.276 713.898 707.797 716.351 708.84C718.804 709.821 720.89 711.293 722.607 713.256C724.386 715.157 725.704 717.488 726.563 720.248C727.483 723.008 727.943 726.105 727.943 729.54C727.943 730.583 727.636 731.38 727.023 731.932C726.41 732.423 725.49 732.668 724.263 732.668H693.351V726.964H721.687L720.123 728.252C720.123 725.185 719.663 722.579 718.743 720.432C717.884 718.285 716.566 716.66 714.787 715.556C713.07 714.391 710.923 713.808 708.347 713.808C705.464 713.808 703.011 714.483 700.987 715.832C699.024 717.181 697.522 719.052 696.479 721.444C695.436 723.836 694.915 726.627 694.915 729.816V730.368C694.915 735.765 696.172 739.844 698.687 742.604C701.263 745.303 704.974 746.652 709.819 746.652C711.659 746.652 713.591 746.407 715.615 745.916C717.7 745.425 719.663 744.597 721.503 743.432C722.546 742.819 723.466 742.543 724.263 742.604C725.122 742.665 725.796 742.941 726.287 743.432C726.839 743.923 727.176 744.536 727.299 745.272C727.422 746.008 727.299 746.775 726.931 747.572C726.563 748.308 725.919 748.983 724.999 749.596C722.914 751.007 720.491 752.08 717.731 752.816C714.971 753.491 712.303 753.828 709.727 753.828Z" fill="#003E70"/>
<path d="M753.805 753.828C751.106 753.828 748.316 753.521 745.433 752.908C742.612 752.295 740.005 751.252 737.613 749.78C736.816 749.228 736.264 748.615 735.957 747.94C735.651 747.265 735.528 746.591 735.589 745.916C735.712 745.18 735.988 744.567 736.417 744.076C736.908 743.524 737.49 743.187 738.165 743.064C738.901 742.941 739.668 743.095 740.465 743.524C742.857 744.873 745.157 745.824 747.365 746.376C749.573 746.867 751.75 747.112 753.897 747.112C757.148 747.112 759.601 746.529 761.257 745.364C762.913 744.199 763.741 742.635 763.741 740.672C763.741 739.077 763.189 737.851 762.085 736.992C760.981 736.072 759.325 735.367 757.117 734.876L748.377 733.128C744.574 732.331 741.692 730.92 739.729 728.896C737.766 726.872 736.785 724.296 736.785 721.168C736.785 718.347 737.552 715.893 739.085 713.808C740.618 711.723 742.765 710.128 745.525 709.024C748.285 707.859 751.474 707.276 755.093 707.276C757.792 707.276 760.337 707.613 762.729 708.288C765.121 708.963 767.329 709.975 769.353 711.324C770.151 711.753 770.672 712.336 770.917 713.072C771.162 713.747 771.193 714.421 771.009 715.096C770.886 715.771 770.58 716.384 770.089 716.936C769.598 717.427 768.985 717.733 768.249 717.856C767.574 717.917 766.808 717.733 765.949 717.304C764.109 716.139 762.269 715.311 760.429 714.82C758.65 714.329 756.872 714.084 755.093 714.084C751.842 714.084 749.389 714.697 747.733 715.924C746.138 717.089 745.341 718.684 745.341 720.708C745.341 722.241 745.832 723.499 746.813 724.48C747.794 725.461 749.328 726.167 751.413 726.596L760.153 728.344C764.14 729.141 767.145 730.491 769.169 732.392C771.254 734.293 772.297 736.869 772.297 740.12C772.297 744.352 770.61 747.695 767.237 750.148C763.864 752.601 759.386 753.828 753.805 753.828Z" fill="#003E70"/>
<path d="M822.625 753.828C819.927 753.828 817.136 753.521 814.253 752.908C811.432 752.295 808.826 751.252 806.433 749.78C805.636 749.228 805.084 748.615 804.777 747.94C804.471 747.265 804.348 746.591 804.409 745.916C804.532 745.18 804.808 744.567 805.237 744.076C805.728 743.524 806.311 743.187 806.985 743.064C807.721 742.941 808.488 743.095 809.285 743.524C811.677 744.873 813.977 745.824 816.185 746.376C818.393 746.867 820.571 747.112 822.717 747.112C825.968 747.112 828.421 746.529 830.077 745.364C831.733 744.199 832.561 742.635 832.561 740.672C832.561 739.077 832.009 737.851 830.905 736.992C829.801 736.072 828.145 735.367 825.937 734.876L817.197 733.128C813.395 732.331 810.512 730.92 808.549 728.896C806.587 726.872 805.605 724.296 805.605 721.168C805.605 718.347 806.372 715.893 807.905 713.808C809.439 711.723 811.585 710.128 814.345 709.024C817.105 707.859 820.295 707.276 823.913 707.276C826.612 707.276 829.157 707.613 831.549 708.288C833.941 708.963 836.149 709.975 838.173 711.324C838.971 711.753 839.492 712.336 839.737 713.072C839.983 713.747 840.013 714.421 839.829 715.096C839.707 715.771 839.4 716.384 838.909 716.936C838.419 717.427 837.805 717.733 837.069 717.856C836.395 717.917 835.628 717.733 834.769 717.304C832.929 716.139 831.089 715.311 829.249 714.82C827.471 714.329 825.692 714.084 823.913 714.084C820.663 714.084 818.209 714.697 816.553 715.924C814.959 717.089 814.161 718.684 814.161 720.708C814.161 722.241 814.652 723.499 815.633 724.48C816.615 725.461 818.148 726.167 820.233 726.596L828.973 728.344C832.96 729.141 835.965 730.491 837.989 732.392C840.075 734.293 841.117 736.869 841.117 740.12C841.117 744.352 839.431 747.695 836.057 750.148C832.684 752.601 828.207 753.828 822.625 753.828Z" fill="#F37D3D"/>
<path d="M872.524 753.828C867.617 753.828 863.385 752.908 859.828 751.068C856.332 749.167 853.603 746.499 851.64 743.064C849.739 739.568 848.788 735.428 848.788 730.644C848.788 725.983 849.739 721.904 851.64 718.408C853.541 714.912 856.148 712.183 859.46 710.22C862.772 708.257 866.544 707.276 870.776 707.276C873.904 707.276 876.695 707.797 879.148 708.84C881.601 709.821 883.687 711.293 885.404 713.256C887.183 715.157 888.501 717.488 889.36 720.248C890.28 723.008 890.74 726.105 890.74 729.54C890.74 730.583 890.433 731.38 889.82 731.932C889.207 732.423 888.287 732.668 887.06 732.668H856.148V726.964H884.484L882.92 728.252C882.92 725.185 882.46 722.579 881.54 720.432C880.681 718.285 879.363 716.66 877.584 715.556C875.867 714.391 873.72 713.808 871.144 713.808C868.261 713.808 865.808 714.483 863.784 715.832C861.821 717.181 860.319 719.052 859.276 721.444C858.233 723.836 857.712 726.627 857.712 729.816V730.368C857.712 735.765 858.969 739.844 861.484 742.604C864.06 745.303 867.771 746.652 872.616 746.652C874.456 746.652 876.388 746.407 878.412 745.916C880.497 745.425 882.46 744.597 884.3 743.432C885.343 742.819 886.263 742.543 887.06 742.604C887.919 742.665 888.593 742.941 889.084 743.432C889.636 743.923 889.973 744.536 890.096 745.272C890.219 746.008 890.096 746.775 889.728 747.572C889.36 748.308 888.716 748.983 887.796 749.596C885.711 751.007 883.288 752.08 880.528 752.816C877.768 753.491 875.1 753.828 872.524 753.828Z" fill="#F37D3D"/>
<path d="M921.202 770.388C917.89 770.388 914.67 770.051 911.542 769.376C908.475 768.701 905.685 767.597 903.17 766.064C902.25 765.573 901.637 764.96 901.33 764.224C901.023 763.549 900.931 762.844 901.054 762.108C901.238 761.372 901.575 760.728 902.066 760.176C902.557 759.624 903.139 759.256 903.814 759.072C904.55 758.888 905.317 759.011 906.114 759.44C908.813 760.912 911.358 761.893 913.75 762.384C916.203 762.936 918.473 763.212 920.558 763.212C924.851 763.212 928.071 762.108 930.218 759.9C932.365 757.753 933.438 754.564 933.438 750.332V740.948H934.266C933.346 744.321 931.414 746.989 928.47 748.952C925.526 750.915 922.122 751.896 918.258 751.896C914.21 751.896 910.683 750.976 907.678 749.136C904.673 747.235 902.342 744.628 900.686 741.316C899.03 737.943 898.202 734.017 898.202 729.54C898.202 726.167 898.662 723.131 899.582 720.432C900.563 717.733 901.913 715.403 903.63 713.44C905.409 711.477 907.525 709.975 909.978 708.932C912.493 707.828 915.253 707.276 918.258 707.276C922.183 707.276 925.587 708.257 928.47 710.22C931.414 712.183 933.315 714.851 934.174 718.224L933.254 719.788V712.152C933.254 710.619 933.653 709.453 934.45 708.656C935.309 707.859 936.443 707.46 937.854 707.46C939.326 707.46 940.461 707.859 941.258 708.656C942.055 709.453 942.454 710.619 942.454 712.152V749.228C942.454 756.22 940.645 761.495 937.026 765.052C933.407 768.609 928.133 770.388 921.202 770.388ZM920.466 744.628C923.165 744.628 925.465 744.015 927.366 742.788C929.267 741.561 930.739 739.813 931.782 737.544C932.825 735.275 933.346 732.607 933.346 729.54C933.346 724.94 932.181 721.291 929.85 718.592C927.581 715.893 924.453 714.544 920.466 714.544C917.829 714.544 915.559 715.157 913.658 716.384C911.757 717.611 910.254 719.359 909.15 721.628C908.107 723.836 907.586 726.473 907.586 729.54C907.586 734.201 908.751 737.881 911.082 740.58C913.413 743.279 916.541 744.628 920.466 744.628Z" fill="#F37D3D"/>
<path d="M971.503 753.828C967.884 753.828 964.848 753.153 962.395 751.804C960.003 750.455 958.194 748.461 956.967 745.824C955.802 743.125 955.219 739.752 955.219 735.704V712.152C955.219 710.557 955.618 709.392 956.415 708.656C957.212 707.859 958.347 707.46 959.819 707.46C961.291 707.46 962.426 707.859 963.223 708.656C964.082 709.392 964.511 710.557 964.511 712.152V735.796C964.511 739.415 965.247 742.083 966.719 743.8C968.191 745.517 970.522 746.376 973.711 746.376C977.207 746.376 980.028 745.211 982.175 742.88C984.383 740.488 985.487 737.36 985.487 733.496V712.152C985.487 710.557 985.886 709.392 986.683 708.656C987.48 707.859 988.646 707.46 990.179 707.46C991.651 707.46 992.786 707.859 993.583 708.656C994.38 709.392 994.779 710.557 994.779 712.152V748.952C994.779 752.08 993.276 753.644 990.271 753.644C988.86 753.644 987.756 753.245 986.959 752.448C986.162 751.589 985.763 750.424 985.763 748.952V741.132L986.959 743.156C985.732 746.591 983.77 749.228 981.071 751.068C978.372 752.908 975.183 753.828 971.503 753.828Z" fill="#F37D3D"/>
<path d="M1012.57 753.644C1011.03 753.644 1009.87 753.245 1009.07 752.448C1008.27 751.589 1007.87 750.424 1007.87 748.952V712.152C1007.87 710.619 1008.27 709.453 1009.07 708.656C1009.87 707.859 1010.97 707.46 1012.38 707.46C1013.85 707.46 1014.96 707.859 1015.69 708.656C1016.49 709.453 1016.89 710.619 1016.89 712.152V718.868H1015.97C1016.95 715.188 1018.76 712.397 1021.4 710.496C1024.04 708.595 1027.41 707.491 1031.52 707.184C1032.62 707.123 1033.48 707.399 1034.09 708.012C1034.77 708.625 1035.14 709.576 1035.2 710.864C1035.32 712.152 1035.04 713.195 1034.37 713.992C1033.7 714.728 1032.65 715.157 1031.24 715.28L1029.49 715.464C1025.51 715.832 1022.47 717.089 1020.39 719.236C1018.3 721.383 1017.26 724.327 1017.26 728.068V748.952C1017.26 750.424 1016.86 751.589 1016.06 752.448C1015.33 753.245 1014.16 753.644 1012.57 753.644Z" fill="#F37D3D"/>
<path d="M1056.1 753.828C1052.97 753.828 1050.15 753.215 1047.63 751.988C1045.18 750.761 1043.25 749.105 1041.84 747.02C1040.43 744.935 1039.72 742.573 1039.72 739.936C1039.72 736.624 1040.55 734.017 1042.21 732.116C1043.92 730.153 1046.71 728.773 1050.58 727.976C1054.5 727.117 1059.78 726.688 1066.4 726.688H1070.73V732.392H1066.49C1062.08 732.392 1058.58 732.607 1056.01 733.036C1053.43 733.465 1051.59 734.201 1050.48 735.244C1049.44 736.225 1048.92 737.605 1048.92 739.384C1048.92 741.715 1049.72 743.616 1051.31 745.088C1052.91 746.499 1055.12 747.204 1057.94 747.204C1060.21 747.204 1062.2 746.683 1063.92 745.64C1065.63 744.536 1066.98 743.064 1067.97 741.224C1069.01 739.384 1069.53 737.268 1069.53 734.876V724.296C1069.53 720.8 1068.79 718.285 1067.32 716.752C1065.85 715.219 1063.43 714.452 1060.05 714.452C1058.09 714.452 1056.04 714.697 1053.89 715.188C1051.8 715.679 1049.63 716.507 1047.36 717.672C1046.31 718.163 1045.43 718.316 1044.69 718.132C1043.95 717.948 1043.37 717.549 1042.94 716.936C1042.51 716.261 1042.27 715.556 1042.21 714.82C1042.21 714.023 1042.39 713.256 1042.76 712.52C1043.19 711.784 1043.89 711.232 1044.87 710.864C1047.57 709.576 1050.24 708.656 1052.88 708.104C1055.51 707.552 1058 707.276 1060.33 707.276C1064.44 707.276 1067.81 707.92 1070.45 709.208C1073.15 710.496 1075.14 712.459 1076.43 715.096C1077.72 717.733 1078.36 721.137 1078.36 725.308V748.952C1078.36 750.424 1077.99 751.589 1077.26 752.448C1076.52 753.245 1075.45 753.644 1074.04 753.644C1072.69 753.644 1071.61 753.245 1070.82 752.448C1070.02 751.589 1069.62 750.424 1069.62 748.952V742.972H1070.45C1069.96 745.241 1069.04 747.204 1067.69 748.86C1066.4 750.455 1064.78 751.681 1062.81 752.54C1060.85 753.399 1058.61 753.828 1056.1 753.828Z" fill="#F37D3D"/>
<path d="M1106.89 753.828C1104.19 753.828 1101.4 753.521 1098.52 752.908C1095.7 752.295 1093.09 751.252 1090.7 749.78C1089.9 749.228 1089.35 748.615 1089.04 747.94C1088.74 747.265 1088.61 746.591 1088.68 745.916C1088.8 745.18 1089.07 744.567 1089.5 744.076C1089.99 743.524 1090.58 743.187 1091.25 743.064C1091.99 742.941 1092.75 743.095 1093.55 743.524C1095.94 744.873 1098.24 745.824 1100.45 746.376C1102.66 746.867 1104.84 747.112 1106.98 747.112C1110.23 747.112 1112.69 746.529 1114.34 745.364C1116 744.199 1116.83 742.635 1116.83 740.672C1116.83 739.077 1116.28 737.851 1115.17 736.992C1114.07 736.072 1112.41 735.367 1110.2 734.876L1101.46 733.128C1097.66 732.331 1094.78 730.92 1092.82 728.896C1090.85 726.872 1089.87 724.296 1089.87 721.168C1089.87 718.347 1090.64 715.893 1092.17 713.808C1093.7 711.723 1095.85 710.128 1098.61 709.024C1101.37 707.859 1104.56 707.276 1108.18 707.276C1110.88 707.276 1113.42 707.613 1115.82 708.288C1118.21 708.963 1120.42 709.975 1122.44 711.324C1123.24 711.753 1123.76 712.336 1124 713.072C1124.25 713.747 1124.28 714.421 1124.1 715.096C1123.97 715.771 1123.67 716.384 1123.18 716.936C1122.68 717.427 1122.07 717.733 1121.34 717.856C1120.66 717.917 1119.89 717.733 1119.04 717.304C1117.2 716.139 1115.36 715.311 1113.52 714.82C1111.74 714.329 1109.96 714.084 1108.18 714.084C1104.93 714.084 1102.48 714.697 1100.82 715.924C1099.22 717.089 1098.43 718.684 1098.43 720.708C1098.43 722.241 1098.92 723.499 1099.9 724.48C1100.88 725.461 1102.41 726.167 1104.5 726.596L1113.24 728.344C1117.23 729.141 1120.23 730.491 1122.26 732.392C1124.34 734.293 1125.38 736.869 1125.38 740.12C1125.38 744.352 1123.7 747.695 1120.32 750.148C1116.95 752.601 1112.47 753.828 1106.89 753.828Z" fill="#F37D3D"/>
<path d="M1170.56 770.204C1169.46 770.204 1168.54 769.897 1167.8 769.284C1167.12 768.732 1166.73 767.965 1166.6 766.984C1166.54 766.064 1166.73 765.052 1167.16 763.948L1173.41 749.872V753.828L1156.21 713.808C1155.78 712.704 1155.62 711.661 1155.75 710.68C1155.87 709.699 1156.33 708.932 1157.13 708.38C1157.92 707.767 1159 707.46 1160.35 707.46C1161.51 707.46 1162.43 707.736 1163.11 708.288C1163.78 708.84 1164.4 709.791 1164.95 711.14L1178.84 745.456H1176.26L1190.34 711.14C1190.89 709.729 1191.54 708.779 1192.27 708.288C1193.01 707.736 1194.02 707.46 1195.31 707.46C1196.41 707.46 1197.27 707.767 1197.88 708.38C1198.56 708.932 1198.96 709.699 1199.08 710.68C1199.26 711.6 1199.11 712.612 1198.62 713.716L1175.62 766.616C1175.01 768.027 1174.3 768.977 1173.5 769.468C1172.77 769.959 1171.79 770.204 1170.56 770.204Z" fill="#F37D3D"/>
<path d="M1236.73 753.644C1235.19 753.644 1234.03 753.245 1233.23 752.448C1232.43 751.589 1232.03 750.424 1232.03 748.952V712.152C1232.03 710.619 1232.43 709.453 1233.23 708.656C1234.03 707.859 1235.13 707.46 1236.54 707.46C1238.01 707.46 1239.12 707.859 1239.85 708.656C1240.65 709.453 1241.05 710.619 1241.05 712.152V718.868H1240.13C1241.11 715.188 1242.92 712.397 1245.56 710.496C1248.2 708.595 1251.57 707.491 1255.68 707.184C1256.78 707.123 1257.64 707.399 1258.25 708.012C1258.93 708.625 1259.3 709.576 1259.36 710.864C1259.48 712.152 1259.2 713.195 1258.53 713.992C1257.86 714.728 1256.81 715.157 1255.4 715.28L1253.65 715.464C1249.67 715.832 1246.63 717.089 1244.55 719.236C1242.46 721.383 1241.42 724.327 1241.42 728.068V748.952C1241.42 750.424 1241.02 751.589 1240.22 752.448C1239.49 753.245 1238.32 753.644 1236.73 753.644Z" fill="#F37D3D"/>
<path d="M1280.71 753.828C1277.58 753.828 1274.76 753.215 1272.24 751.988C1269.79 750.761 1267.86 749.105 1266.45 747.02C1265.04 744.935 1264.33 742.573 1264.33 739.936C1264.33 736.624 1265.16 734.017 1266.81 732.116C1268.53 730.153 1271.32 728.773 1275.19 727.976C1279.11 727.117 1284.39 726.688 1291.01 726.688H1295.33V732.392H1291.1C1286.69 732.392 1283.19 732.607 1280.61 733.036C1278.04 733.465 1276.2 734.201 1275.09 735.244C1274.05 736.225 1273.53 737.605 1273.53 739.384C1273.53 741.715 1274.33 743.616 1275.92 745.088C1277.52 746.499 1279.73 747.204 1282.55 747.204C1284.82 747.204 1286.81 746.683 1288.53 745.64C1290.24 744.536 1291.59 743.064 1292.57 741.224C1293.62 739.384 1294.14 737.268 1294.14 734.876V724.296C1294.14 720.8 1293.4 718.285 1291.93 716.752C1290.46 715.219 1288.04 714.452 1284.66 714.452C1282.7 714.452 1280.65 714.697 1278.5 715.188C1276.41 715.679 1274.24 716.507 1271.97 717.672C1270.92 718.163 1270.03 718.316 1269.3 718.132C1268.56 717.948 1267.98 717.549 1267.55 716.936C1267.12 716.261 1266.88 715.556 1266.81 714.82C1266.81 714.023 1267 713.256 1267.37 712.52C1267.8 711.784 1268.5 711.232 1269.48 710.864C1272.18 709.576 1274.85 708.656 1277.49 708.104C1280.12 707.552 1282.61 707.276 1284.94 707.276C1289.05 707.276 1292.42 707.92 1295.06 709.208C1297.76 710.496 1299.75 712.459 1301.04 715.096C1302.33 717.733 1302.97 721.137 1302.97 725.308V748.952C1302.97 750.424 1302.6 751.589 1301.87 752.448C1301.13 753.245 1300.06 753.644 1298.65 753.644C1297.3 753.644 1296.22 753.245 1295.43 752.448C1294.63 751.589 1294.23 750.424 1294.23 748.952V742.972H1295.06C1294.57 745.241 1293.65 747.204 1292.3 748.86C1291.01 750.455 1289.39 751.681 1287.42 752.54C1285.46 753.399 1283.22 753.828 1280.71 753.828ZM1288.71 701.664C1288.22 702.4 1287.61 702.829 1286.87 702.952C1286.2 703.075 1285.52 702.952 1284.85 702.584C1284.17 702.216 1283.68 701.695 1283.37 701.02C1283.13 700.345 1283.19 699.609 1283.56 698.812L1291.01 684.368C1291.5 683.387 1292.11 682.743 1292.85 682.436C1293.65 682.129 1294.45 682.099 1295.24 682.344C1296.1 682.528 1296.81 682.896 1297.36 683.448C1297.97 684 1298.34 684.705 1298.46 685.564C1298.59 686.361 1298.37 687.159 1297.82 687.956L1288.71 701.664Z" fill="#F37D3D"/>
<path d="M1320.37 770.204C1318.9 770.204 1317.76 769.805 1316.96 769.008C1316.17 768.211 1315.77 767.045 1315.77 765.512V712.152C1315.77 710.619 1316.17 709.453 1316.96 708.656C1317.76 707.859 1318.87 707.46 1320.28 707.46C1321.75 707.46 1322.88 707.859 1323.68 708.656C1324.48 709.453 1324.88 710.619 1324.88 712.152V720.156L1323.86 718.224C1324.85 714.912 1326.78 712.275 1329.66 710.312C1332.54 708.288 1335.95 707.276 1339.87 707.276C1343.86 707.276 1347.32 708.227 1350.27 710.128C1353.27 712.029 1355.57 714.697 1357.17 718.132C1358.82 721.567 1359.65 725.707 1359.65 730.552C1359.65 735.275 1358.82 739.415 1357.17 742.972C1355.57 746.468 1353.3 749.167 1350.36 751.068C1347.42 752.908 1343.92 753.828 1339.87 753.828C1336.01 753.828 1332.64 752.847 1329.75 750.884C1326.87 748.921 1324.94 746.315 1323.96 743.064H1325.06V765.512C1325.06 767.045 1324.63 768.211 1323.77 769.008C1322.98 769.805 1321.84 770.204 1320.37 770.204ZM1337.57 746.652C1340.15 746.652 1342.39 746.039 1344.29 744.812C1346.19 743.585 1347.66 741.776 1348.7 739.384C1349.75 736.992 1350.27 734.048 1350.27 730.552C1350.27 725.277 1349.1 721.291 1346.77 718.592C1344.5 715.893 1341.44 714.544 1337.57 714.544C1335.06 714.544 1332.82 715.157 1330.86 716.384C1328.96 717.549 1327.48 719.328 1326.44 721.72C1325.4 724.112 1324.88 727.056 1324.88 730.552C1324.88 735.765 1326.04 739.752 1328.37 742.512C1330.7 745.272 1333.77 746.652 1337.57 746.652Z" fill="#F37D3D"/>
<path d="M1374.72 753.552C1373.25 753.552 1372.12 753.123 1371.32 752.264C1370.52 751.344 1370.12 750.087 1370.12 748.492V712.612C1370.12 711.017 1370.52 709.791 1371.32 708.932C1372.12 708.073 1373.25 707.644 1374.72 707.644C1376.2 707.644 1377.33 708.073 1378.13 708.932C1378.99 709.791 1379.42 711.017 1379.42 712.612V748.492C1379.42 750.087 1379.02 751.344 1378.22 752.264C1377.42 753.123 1376.26 753.552 1374.72 753.552ZM1374.72 698.076C1372.88 698.076 1371.44 697.616 1370.4 696.696C1369.42 695.776 1368.93 694.488 1368.93 692.832C1368.93 691.115 1369.42 689.827 1370.4 688.968C1371.44 688.048 1372.88 687.588 1374.72 687.588C1376.56 687.588 1377.97 688.048 1378.96 688.968C1380 689.827 1380.52 691.115 1380.52 692.832C1380.52 694.488 1380 695.776 1378.96 696.696C1377.97 697.616 1376.56 698.076 1374.72 698.076Z" fill="#F37D3D"/>
<path d="M1409.61 753.828C1405.68 753.828 1402.22 752.908 1399.21 751.068C1396.27 749.167 1393.97 746.468 1392.31 742.972C1390.66 739.415 1389.83 735.275 1389.83 730.552C1389.83 725.707 1390.66 721.567 1392.31 718.132C1393.97 714.697 1396.27 712.029 1399.21 710.128C1402.22 708.227 1405.68 707.276 1409.61 707.276C1413.53 707.276 1416.91 708.257 1419.73 710.22C1422.61 712.121 1424.54 714.697 1425.52 717.948H1424.51V692.188C1424.51 690.655 1424.91 689.489 1425.71 688.692C1426.5 687.895 1427.64 687.496 1429.11 687.496C1430.58 687.496 1431.72 687.895 1432.52 688.692C1433.37 689.489 1433.8 690.655 1433.8 692.188V748.952C1433.8 750.424 1433.4 751.589 1432.61 752.448C1431.81 753.245 1430.68 753.644 1429.2 753.644C1427.73 753.644 1426.6 753.245 1425.8 752.448C1425 751.589 1424.6 750.424 1424.6 748.952V740.856L1425.61 742.88C1424.63 746.192 1422.7 748.86 1419.82 750.884C1417 752.847 1413.59 753.828 1409.61 753.828ZM1412 746.652C1414.51 746.652 1416.72 746.039 1418.62 744.812C1420.52 743.585 1422 741.776 1423.04 739.384C1424.14 736.992 1424.7 734.048 1424.7 730.552C1424.7 725.277 1423.53 721.291 1421.2 718.592C1418.87 715.893 1415.8 714.544 1412 714.544C1409.42 714.544 1407.18 715.157 1405.28 716.384C1403.38 717.549 1401.88 719.328 1400.78 721.72C1399.73 724.112 1399.21 727.056 1399.21 730.552C1399.21 735.765 1400.38 739.752 1402.71 742.512C1405.04 745.272 1408.14 746.652 1412 746.652Z" fill="#F37D3D"/>
<path d="M1461.2 753.828C1458.07 753.828 1455.25 753.215 1452.74 751.988C1450.29 750.761 1448.35 749.105 1446.94 747.02C1445.53 744.935 1444.83 742.573 1444.83 739.936C1444.83 736.624 1445.65 734.017 1447.31 732.116C1449.03 730.153 1451.82 728.773 1455.68 727.976C1459.61 727.117 1464.88 726.688 1471.51 726.688H1475.83V732.392H1471.6C1467.18 732.392 1463.69 732.607 1461.11 733.036C1458.53 733.465 1456.69 734.201 1455.59 735.244C1454.55 736.225 1454.03 737.605 1454.03 739.384C1454.03 741.715 1454.82 743.616 1456.42 745.088C1458.01 746.499 1460.22 747.204 1463.04 747.204C1465.31 747.204 1467.31 746.683 1469.02 745.64C1470.74 744.536 1472.09 743.064 1473.07 741.224C1474.11 739.384 1474.63 737.268 1474.63 734.876V724.296C1474.63 720.8 1473.9 718.285 1472.43 716.752C1470.95 715.219 1468.53 714.452 1465.16 714.452C1463.2 714.452 1461.14 714.697 1458.99 715.188C1456.91 715.679 1454.73 716.507 1452.46 717.672C1451.42 718.163 1450.53 718.316 1449.79 718.132C1449.06 717.948 1448.48 717.549 1448.05 716.936C1447.62 716.261 1447.37 715.556 1447.31 714.82C1447.31 714.023 1447.49 713.256 1447.86 712.52C1448.29 711.784 1449 711.232 1449.98 710.864C1452.68 709.576 1455.35 708.656 1457.98 708.104C1460.62 707.552 1463.1 707.276 1465.43 707.276C1469.54 707.276 1472.92 707.92 1475.55 709.208C1478.25 710.496 1480.25 712.459 1481.53 715.096C1482.82 717.733 1483.47 721.137 1483.47 725.308V748.952C1483.47 750.424 1483.1 751.589 1482.36 752.448C1481.63 753.245 1480.55 753.644 1479.14 753.644C1477.79 753.644 1476.72 753.245 1475.92 752.448C1475.13 751.589 1474.73 750.424 1474.73 748.952V742.972H1475.55C1475.06 745.241 1474.14 747.204 1472.79 748.86C1471.51 750.455 1469.88 751.681 1467.92 752.54C1465.96 753.399 1463.72 753.828 1461.2 753.828Z" fill="#F37D3D"/>
<path d="M1512 753.828C1509.3 753.828 1506.51 753.521 1503.62 752.908C1500.8 752.295 1498.2 751.252 1495.8 749.78C1495.01 749.228 1494.46 748.615 1494.15 747.94C1493.84 747.265 1493.72 746.591 1493.78 745.916C1493.9 745.18 1494.18 744.567 1494.61 744.076C1495.1 743.524 1495.68 743.187 1496.36 743.064C1497.09 742.941 1497.86 743.095 1498.66 743.524C1501.05 744.873 1503.35 745.824 1505.56 746.376C1507.76 746.867 1509.94 747.112 1512.09 747.112C1515.34 747.112 1517.79 746.529 1519.45 745.364C1521.1 744.199 1521.93 742.635 1521.93 740.672C1521.93 739.077 1521.38 737.851 1520.28 736.992C1519.17 736.072 1517.52 735.367 1515.31 734.876L1506.57 733.128C1502.77 732.331 1499.88 730.92 1497.92 728.896C1495.96 726.872 1494.98 724.296 1494.98 721.168C1494.98 718.347 1495.74 715.893 1497.28 713.808C1498.81 711.723 1500.96 710.128 1503.72 709.024C1506.48 707.859 1509.67 707.276 1513.28 707.276C1515.98 707.276 1518.53 707.613 1520.92 708.288C1523.31 708.963 1525.52 709.975 1527.54 711.324C1528.34 711.753 1528.86 712.336 1529.11 713.072C1529.35 713.747 1529.38 714.421 1529.2 715.096C1529.08 715.771 1528.77 716.384 1528.28 716.936C1527.79 717.427 1527.18 717.733 1526.44 717.856C1525.77 717.917 1525 717.733 1524.14 717.304C1522.3 716.139 1520.46 715.311 1518.62 714.82C1516.84 714.329 1515.06 714.084 1513.28 714.084C1510.03 714.084 1507.58 714.697 1505.92 715.924C1504.33 717.089 1503.53 718.684 1503.53 720.708C1503.53 722.241 1504.02 723.499 1505 724.48C1505.99 725.461 1507.52 726.167 1509.6 726.596L1518.34 728.344C1522.33 729.141 1525.34 730.491 1527.36 732.392C1529.45 734.293 1530.49 736.869 1530.49 740.12C1530.49 744.352 1528.8 747.695 1525.43 750.148C1522.06 752.601 1517.58 753.828 1512 753.828Z" fill="#F37D3D"/>
<path d="M1544.89 753.368C1543.11 753.368 1541.67 752.816 1540.56 751.712C1539.46 750.608 1538.91 749.197 1538.91 747.48C1538.91 745.763 1539.46 744.383 1540.56 743.34C1541.67 742.236 1543.11 741.684 1544.89 741.684C1546.66 741.684 1548.08 742.236 1549.12 743.34C1550.16 744.383 1550.68 745.763 1550.68 747.48C1550.68 749.197 1550.16 750.608 1549.12 751.712C1548.08 752.816 1546.66 753.368 1544.89 753.368Z" fill="#F37D3D"/>
</svg>
