<svg width="1920" height="1920" viewBox="0 0 1920 1920" fill="none" xmlns="http://www.w3.org/2000/svg">
<path d="M811.47 115C617.32 115 460 290.005 460 505.84C460 659.97 540.364 792.954 656.962 856.553V607.187C656.962 519.901 727.699 449.218 814.931 449.218C902.163 449.218 972.9 519.955 972.9 607.187V852.875C1085.71 787.816 1162.94 656.941 1162.94 505.84C1162.89 290.005 1005.56 115 811.47 115Z" fill="#003E70"/>
<path d="M1460 1463.33V1124.57C1460 1073.85 1419.01 1032.91 1368.44 1032.91C1317.77 1032.91 1276.77 1074.01 1276.77 1124.57V1074.82C1276.77 1024.09 1235.67 983.26 1185.11 983.26C1134.54 983.26 1093.55 1024.25 1093.55 1074.82L1090.31 995.591C1090.31 944.863 1049.26 903.924 998.693 903.924C948.127 903.924 907.134 944.917 907.134 995.591V616.27C907.134 565.65 866.033 524.657 815.468 524.657C764.74 524.657 723.855 565.758 723.855 616.27V1287.3L648.467 1168.27C621.427 1125.49 564.804 1112.73 522.027 1139.66C479.249 1166.81 466.432 1223.43 493.526 1266.1L630.566 1519.2C630.566 1519.2 757.872 1804.8 1043.85 1804.8C1329.5 1804.85 1460 1631.09 1460 1463.33Z" fill="#F26E25"/>
</svg>
