<svg width="2480" height="1060" viewBox="0 0 2480 1060" fill="none" xmlns="http://www.w3.org/2000/svg">
<path d="M1712.45 297.271C1638.62 297.271 1578.8 363.911 1578.8 446.1C1578.8 504.791 1609.36 555.43 1653.7 579.648V484.692C1653.7 451.454 1680.6 424.539 1713.77 424.539C1746.94 424.539 1773.84 451.475 1773.84 484.692V578.248C1816.73 553.474 1846.1 503.638 1846.1 446.1C1846.08 363.911 1786.26 297.271 1712.45 297.271Z" fill="white"/>
<path d="M302.583 590.954C248.394 590.954 223.305 552.073 223.305 510.392V350.979H190.195V306.414H223.284V218.46H281.462V306.414H337.378V350.979H281.462V507.53C281.462 528.659 291.745 541.283 313.42 541.283H337.378V590.954H302.583Z" fill="white"/>
<path d="M596.332 560.105C577.494 579.525 548.991 594.372 509.63 594.372C470.269 594.372 442.321 579.525 423.484 560.105C396.091 531.521 389.243 494.968 389.243 445.853C389.243 397.293 396.091 360.719 423.484 332.156C442.321 312.737 470.269 297.868 509.63 297.868C548.991 297.868 577.515 312.716 596.332 332.156C623.724 360.719 630.572 397.293 630.572 445.853C630.572 494.947 623.704 531.521 596.332 560.105ZM552.405 366.403C541.567 355.55 526.72 349.825 509.61 349.825C492.479 349.825 478.228 355.509 467.39 366.403C449.704 384.113 447.421 414.386 447.421 445.811C447.421 477.216 449.704 507.509 467.39 525.22C478.228 536.072 492.479 542.353 509.61 542.353C526.72 542.353 541.547 536.072 552.405 525.22C570.091 507.509 572.374 477.216 572.374 445.811C572.374 414.386 570.091 384.134 552.405 366.403Z" fill="white"/>
<path d="M789.765 590.954C735.556 590.954 710.467 552.073 710.467 510.392V350.979H677.378V306.414H710.467V218.46H768.645V306.414H824.561V350.979H768.645V507.53C768.645 528.659 778.927 541.283 800.603 541.283H824.561V590.954H789.765Z" fill="white"/>
<path d="M1045.86 590.954V564.697C1024.76 585.806 1004.77 594.372 968.845 594.372C932.918 594.372 908.939 585.806 891.253 568.116C876.426 552.712 868.447 530.43 868.447 505.862C868.447 457.323 902.112 422.438 968.269 422.438H1044.71V401.844C1044.71 365.312 1026.45 347.581 981.389 347.581C949.431 347.581 934.028 354.994 918.07 375.567L879.84 339.57C907.232 307.568 935.756 297.868 983.672 297.868C1062.97 297.868 1102.91 331.579 1102.91 397.273V590.954H1045.86ZM1044.73 462.986H976.844C942.624 462.986 924.939 478.39 924.939 504.647C924.939 530.945 941.493 545.792 977.996 545.792C1000.25 545.792 1016.78 544.104 1032.18 529.215C1040.74 520.648 1044.73 506.933 1044.73 486.36V462.986Z" fill="white"/>
<path d="M1264.4 590.954C1209.06 590.954 1185.11 553.824 1185.11 510.969V184.192H1243.3V507.53C1243.3 529.853 1251.28 541.282 1274.67 541.282H1300.33V590.954H1264.4Z" fill="white"/>
<path d="M1458.29 594.372C1393.26 594.372 1329.35 554.401 1329.35 445.853C1329.35 337.305 1393.24 297.868 1458.29 297.868C1498.23 297.868 1526.17 309.318 1553.57 338.437L1513.67 377.297C1495.41 357.28 1481.14 349.866 1458.35 349.866C1436.1 349.866 1417.26 358.989 1404.74 375.588C1392.21 391.548 1387.63 412.12 1387.63 445.853C1387.63 479.564 1392.21 500.693 1404.74 516.694C1417.26 533.292 1436.1 542.395 1458.35 542.395C1481.14 542.395 1495.45 534.96 1513.67 514.964L1553.57 553.247C1526.15 582.387 1498.23 594.372 1458.29 594.372Z" fill="white"/>
<path d="M1904.42 244.181V182.483H1966.04V244.181H1904.42ZM1906.13 590.954V301.286H1964.31V590.933H1906.13V590.954Z" fill="white"/>
<path d="M2227.34 590.954V414.406C2227.34 369.286 2201.67 349.846 2169.16 349.846C2136.64 349.846 2109.25 369.842 2109.25 414.406V590.933H2051.09V301.286H2108.12V330.426C2128.09 308.721 2156.04 297.847 2185.12 297.847C2214.75 297.847 2239.32 307.567 2256.43 324.125C2278.69 345.83 2285.53 373.24 2285.53 405.819V590.933H2227.34V590.954Z" fill="white"/>
<path d="M1959.06 810.706V681.709C1959.06 662.392 1943.48 646.803 1924.25 646.803C1904.98 646.803 1889.39 662.454 1889.39 681.709V662.763C1889.39 643.446 1873.76 627.898 1854.53 627.898C1835.3 627.898 1819.72 643.508 1819.72 662.763L1818.48 632.594C1818.48 613.277 1802.87 597.688 1783.65 597.688C1764.42 597.688 1748.83 613.298 1748.83 632.594V488.151C1748.83 468.876 1733.2 453.266 1713.97 453.266C1694.68 453.266 1679.14 468.917 1679.14 488.151V743.675L1650.47 698.349C1640.18 682.059 1618.65 677.199 1602.39 687.455C1586.12 697.793 1581.25 719.354 1591.55 735.602L1643.66 831.979C1643.66 831.979 1692.07 940.733 1800.82 940.733C1909.44 940.754 1959.06 874.587 1959.06 810.706Z" fill="#F37D3D"/>
</svg>
