<svg width="512" height="512" viewBox="0 0 512 512" fill="none" xmlns="http://www.w3.org/2000/svg">
<rect width="512" height="512" rx="52" fill="#FEFEFE"/>
<path d="M217.089 42.6665C168.048 42.6665 128.309 86.872 128.309 141.391C128.309 180.324 148.609 213.915 178.061 229.98V166.991C178.061 144.943 195.929 127.089 217.964 127.089C239.998 127.089 257.866 144.957 257.866 166.991V229.051C286.362 212.617 305.869 179.559 305.869 141.391C305.855 86.872 266.117 42.6665 217.089 42.6665Z" fill="#003E70"/>
<path d="M380.905 383.251V297.681C380.905 284.867 370.551 274.526 357.778 274.526C344.978 274.526 334.624 284.908 334.624 297.681V285.113C334.624 272.3 324.242 261.986 311.469 261.986C298.696 261.986 288.342 272.341 288.342 285.113L287.522 265.101C287.522 252.287 277.154 241.946 264.381 241.946C251.608 241.946 241.254 252.301 241.254 265.101V169.285C241.254 156.499 230.872 146.145 218.099 146.145C205.286 146.145 194.958 156.527 194.958 169.285V338.785L175.915 308.719C169.085 297.913 154.783 294.689 143.977 301.492C133.172 308.35 129.934 322.652 136.778 333.431L171.394 397.362C171.394 397.362 203.551 469.503 275.788 469.503C347.943 469.517 380.905 425.626 380.905 383.251Z" fill="#F26E25"/>
</svg>
