<svg width="1920" height="1920" viewBox="0 0 1920 1920" fill="none" xmlns="http://www.w3.org/2000/svg">
<path d="M811.469 115C617.32 115 460 290.004 460 505.84C460 659.969 540.364 792.953 656.962 856.552V607.187C656.962 519.901 727.699 449.218 814.931 449.218C902.162 449.218 972.9 519.955 972.9 607.187V852.874C1085.71 787.815 1162.94 656.941 1162.94 505.84C1162.88 290.004 1005.56 115 811.469 115Z" fill="white"/>
<path d="M1460 1463.33V1124.57C1460 1073.84 1419.01 1032.9 1368.44 1032.9C1317.77 1032.9 1276.78 1074.01 1276.78 1124.57V1074.82C1276.78 1024.09 1235.67 983.259 1185.11 983.259C1134.54 983.259 1093.55 1024.25 1093.55 1074.82L1090.31 995.589C1090.31 944.862 1049.26 903.923 998.693 903.923C948.128 903.923 907.135 944.916 907.135 995.589V616.268C907.135 565.649 866.034 524.656 815.468 524.656C764.741 524.656 723.856 565.757 723.856 616.268V1287.3L648.468 1168.27C621.427 1125.49 564.805 1112.73 522.028 1139.66C479.25 1166.81 466.433 1223.43 493.527 1266.1L630.567 1519.2C630.567 1519.2 757.873 1804.8 1043.85 1804.8C1329.5 1804.85 1460 1631.09 1460 1463.33Z" fill="white"/>
</svg>
